<mxfile host="app.diagrams.net" modified="2024-01-30T05:20:16.665Z" agent="Mozilla/5.0 (Macintosh; Intel Mac OS X 10_15_7) AppleWebKit/537.36 (KHTML, like Gecko) Chrome/120.0.0.0 Safari/537.36" etag="aZcfz5dTr-5RFeP4LAg1" version="23.0.2" type="github">
  <diagram name="페이지-1" id="AF8HYk3PkWRPbSMHDaE7">
    <mxGraphModel dx="954" dy="581" grid="1" gridSize="10" guides="1" tooltips="1" connect="1" arrows="1" fold="1" page="1" pageScale="1" pageWidth="827" pageHeight="1169" math="0" shadow="0">
      <root>
        <mxCell id="0" />
        <mxCell id="1" parent="0" />
        <mxCell id="vqnMOsUC-vPy9NbRKkSd-18" value="" style="rounded=0;orthogonalLoop=1;jettySize=auto;html=1;" edge="1" parent="1" source="vqnMOsUC-vPy9NbRKkSd-1" target="vqnMOsUC-vPy9NbRKkSd-6">
          <mxGeometry relative="1" as="geometry" />
        </mxCell>
        <mxCell id="vqnMOsUC-vPy9NbRKkSd-20" style="edgeStyle=orthogonalEdgeStyle;rounded=0;orthogonalLoop=1;jettySize=auto;html=1;entryX=0;entryY=0.5;entryDx=0;entryDy=0;" edge="1" parent="1" source="vqnMOsUC-vPy9NbRKkSd-1" target="vqnMOsUC-vPy9NbRKkSd-10">
          <mxGeometry relative="1" as="geometry" />
        </mxCell>
        <mxCell id="vqnMOsUC-vPy9NbRKkSd-23" style="edgeStyle=orthogonalEdgeStyle;rounded=0;orthogonalLoop=1;jettySize=auto;html=1;entryX=0;entryY=0.5;entryDx=0;entryDy=0;" edge="1" parent="1" source="vqnMOsUC-vPy9NbRKkSd-1" target="vqnMOsUC-vPy9NbRKkSd-8">
          <mxGeometry relative="1" as="geometry" />
        </mxCell>
        <mxCell id="vqnMOsUC-vPy9NbRKkSd-1" value="이용자&lt;br&gt;" style="shape=umlActor;verticalLabelPosition=bottom;verticalAlign=top;html=1;" vertex="1" parent="1">
          <mxGeometry x="20" y="140" width="30" height="60" as="geometry" />
        </mxCell>
        <mxCell id="vqnMOsUC-vPy9NbRKkSd-4" value="게시판서비스" style="shape=umlFrame;whiteSpace=wrap;html=1;pointerEvents=0;" vertex="1" parent="1">
          <mxGeometry x="120" y="40" width="510" height="530" as="geometry" />
        </mxCell>
        <mxCell id="vqnMOsUC-vPy9NbRKkSd-6" value="회원 가입" style="rounded=1;whiteSpace=wrap;html=1;arcSize=40;fontColor=#000000;fillColor=#ffffc0;strokeColor=#ff0000;" vertex="1" parent="1">
          <mxGeometry x="190" y="150" width="120" height="40" as="geometry" />
        </mxCell>
        <mxCell id="vqnMOsUC-vPy9NbRKkSd-30" style="edgeStyle=orthogonalEdgeStyle;rounded=0;orthogonalLoop=1;jettySize=auto;html=1;" edge="1" parent="1" source="vqnMOsUC-vPy9NbRKkSd-8" target="vqnMOsUC-vPy9NbRKkSd-10">
          <mxGeometry relative="1" as="geometry" />
        </mxCell>
        <mxCell id="vqnMOsUC-vPy9NbRKkSd-40" style="edgeStyle=orthogonalEdgeStyle;rounded=0;orthogonalLoop=1;jettySize=auto;html=1;" edge="1" parent="1" source="vqnMOsUC-vPy9NbRKkSd-8" target="vqnMOsUC-vPy9NbRKkSd-36">
          <mxGeometry relative="1" as="geometry" />
        </mxCell>
        <mxCell id="vqnMOsUC-vPy9NbRKkSd-8" value="게시판 보기" style="rounded=1;whiteSpace=wrap;html=1;arcSize=40;fontColor=#000000;fillColor=#ffffc0;strokeColor=#ff0000;" vertex="1" parent="1">
          <mxGeometry x="190" y="250" width="120" height="40" as="geometry" />
        </mxCell>
        <mxCell id="vqnMOsUC-vPy9NbRKkSd-21" value="&amp;lt;Include&amp;gt;" style="edgeStyle=orthogonalEdgeStyle;rounded=0;orthogonalLoop=1;jettySize=auto;html=1;entryX=0;entryY=0.5;entryDx=0;entryDy=0;dashed=1;dashPattern=8 8;" edge="1" parent="1" source="vqnMOsUC-vPy9NbRKkSd-10" target="vqnMOsUC-vPy9NbRKkSd-11">
          <mxGeometry relative="1" as="geometry" />
        </mxCell>
        <mxCell id="vqnMOsUC-vPy9NbRKkSd-22" value="&amp;lt;extend&amp;gt;" style="edgeStyle=orthogonalEdgeStyle;rounded=0;orthogonalLoop=1;jettySize=auto;html=1;entryX=0;entryY=0.5;entryDx=0;entryDy=0;dashed=1;" edge="1" parent="1" source="vqnMOsUC-vPy9NbRKkSd-10" target="vqnMOsUC-vPy9NbRKkSd-12">
          <mxGeometry relative="1" as="geometry" />
        </mxCell>
        <mxCell id="vqnMOsUC-vPy9NbRKkSd-10" value="로그인" style="rounded=1;whiteSpace=wrap;html=1;arcSize=40;fontColor=#000000;fillColor=#ffffc0;strokeColor=#ff0000;" vertex="1" parent="1">
          <mxGeometry x="190" y="70" width="120" height="40" as="geometry" />
        </mxCell>
        <mxCell id="vqnMOsUC-vPy9NbRKkSd-38" style="edgeStyle=orthogonalEdgeStyle;rounded=0;orthogonalLoop=1;jettySize=auto;html=1;entryX=0;entryY=0.5;entryDx=0;entryDy=0;" edge="1" parent="1" source="vqnMOsUC-vPy9NbRKkSd-11" target="vqnMOsUC-vPy9NbRKkSd-36">
          <mxGeometry relative="1" as="geometry" />
        </mxCell>
        <mxCell id="vqnMOsUC-vPy9NbRKkSd-11" value="인증" style="rounded=1;whiteSpace=wrap;html=1;arcSize=40;fontColor=#000000;fillColor=#ffffc0;strokeColor=#ff0000;" vertex="1" parent="1">
          <mxGeometry x="440" y="70" width="120" height="40" as="geometry" />
        </mxCell>
        <mxCell id="vqnMOsUC-vPy9NbRKkSd-12" value="로그인 실패" style="rounded=1;whiteSpace=wrap;html=1;arcSize=40;fontColor=#000000;fillColor=#ffffc0;strokeColor=#ff0000;" vertex="1" parent="1">
          <mxGeometry x="440" y="160" width="120" height="40" as="geometry" />
        </mxCell>
        <mxCell id="vqnMOsUC-vPy9NbRKkSd-32" style="edgeStyle=orthogonalEdgeStyle;rounded=0;orthogonalLoop=1;jettySize=auto;html=1;entryX=1;entryY=0.5;entryDx=0;entryDy=0;dashed=1;" edge="1" parent="1" source="vqnMOsUC-vPy9NbRKkSd-13" target="vqnMOsUC-vPy9NbRKkSd-8">
          <mxGeometry relative="1" as="geometry" />
        </mxCell>
        <mxCell id="vqnMOsUC-vPy9NbRKkSd-13" value="게시판 정렬" style="rounded=1;whiteSpace=wrap;html=1;arcSize=40;fontColor=#000000;fillColor=#ffffc0;strokeColor=#ff0000;" vertex="1" parent="1">
          <mxGeometry x="380" y="250" width="120" height="40" as="geometry" />
        </mxCell>
        <mxCell id="vqnMOsUC-vPy9NbRKkSd-33" style="edgeStyle=orthogonalEdgeStyle;rounded=0;orthogonalLoop=1;jettySize=auto;html=1;entryX=1;entryY=0.5;entryDx=0;entryDy=0;dashed=1;dashPattern=8 8;" edge="1" parent="1" source="vqnMOsUC-vPy9NbRKkSd-14" target="vqnMOsUC-vPy9NbRKkSd-8">
          <mxGeometry relative="1" as="geometry" />
        </mxCell>
        <mxCell id="vqnMOsUC-vPy9NbRKkSd-14" value="게시판 검색" style="rounded=1;whiteSpace=wrap;html=1;arcSize=40;fontColor=#000000;fillColor=#ffffc0;strokeColor=#ff0000;" vertex="1" parent="1">
          <mxGeometry x="380" y="330" width="120" height="40" as="geometry" />
        </mxCell>
        <mxCell id="vqnMOsUC-vPy9NbRKkSd-35" style="edgeStyle=orthogonalEdgeStyle;rounded=0;orthogonalLoop=1;jettySize=auto;html=1;entryX=1;entryY=0.5;entryDx=0;entryDy=0;dashed=1;" edge="1" parent="1" source="vqnMOsUC-vPy9NbRKkSd-15" target="vqnMOsUC-vPy9NbRKkSd-25">
          <mxGeometry relative="1" as="geometry" />
        </mxCell>
        <mxCell id="vqnMOsUC-vPy9NbRKkSd-43" style="edgeStyle=orthogonalEdgeStyle;rounded=0;orthogonalLoop=1;jettySize=auto;html=1;entryX=0.5;entryY=1;entryDx=0;entryDy=0;" edge="1" parent="1" source="vqnMOsUC-vPy9NbRKkSd-15" target="vqnMOsUC-vPy9NbRKkSd-36">
          <mxGeometry relative="1" as="geometry" />
        </mxCell>
        <mxCell id="vqnMOsUC-vPy9NbRKkSd-15" value="댓글 보기, 수정, 삭제" style="rounded=1;whiteSpace=wrap;html=1;arcSize=40;fontColor=#000000;fillColor=#ffffc0;strokeColor=#ff0000;" vertex="1" parent="1">
          <mxGeometry x="380" y="470" width="120" height="40" as="geometry" />
        </mxCell>
        <mxCell id="vqnMOsUC-vPy9NbRKkSd-34" value="" style="edgeStyle=orthogonalEdgeStyle;rounded=0;orthogonalLoop=1;jettySize=auto;html=1;dashed=1;" edge="1" parent="1" source="vqnMOsUC-vPy9NbRKkSd-16" target="vqnMOsUC-vPy9NbRKkSd-25">
          <mxGeometry relative="1" as="geometry" />
        </mxCell>
        <mxCell id="vqnMOsUC-vPy9NbRKkSd-44" style="edgeStyle=orthogonalEdgeStyle;rounded=0;orthogonalLoop=1;jettySize=auto;html=1;" edge="1" parent="1" source="vqnMOsUC-vPy9NbRKkSd-16">
          <mxGeometry relative="1" as="geometry">
            <mxPoint x="750" y="270" as="targetPoint" />
          </mxGeometry>
        </mxCell>
        <mxCell id="vqnMOsUC-vPy9NbRKkSd-16" value="게시글 쓰기, 수정, 삭제" style="rounded=1;whiteSpace=wrap;html=1;arcSize=40;fontColor=#000000;fillColor=#ffffc0;strokeColor=#ff0000;" vertex="1" parent="1">
          <mxGeometry x="380" y="400" width="120" height="40" as="geometry" />
        </mxCell>
        <mxCell id="vqnMOsUC-vPy9NbRKkSd-31" style="edgeStyle=orthogonalEdgeStyle;rounded=0;orthogonalLoop=1;jettySize=auto;html=1;entryX=0.5;entryY=1;entryDx=0;entryDy=0;" edge="1" parent="1" source="vqnMOsUC-vPy9NbRKkSd-25" target="vqnMOsUC-vPy9NbRKkSd-10">
          <mxGeometry relative="1" as="geometry" />
        </mxCell>
        <mxCell id="vqnMOsUC-vPy9NbRKkSd-41" style="edgeStyle=orthogonalEdgeStyle;rounded=0;orthogonalLoop=1;jettySize=auto;html=1;" edge="1" parent="1" source="vqnMOsUC-vPy9NbRKkSd-25" target="vqnMOsUC-vPy9NbRKkSd-36">
          <mxGeometry relative="1" as="geometry" />
        </mxCell>
        <mxCell id="vqnMOsUC-vPy9NbRKkSd-25" value="게시글 보기" style="rounded=1;whiteSpace=wrap;html=1;arcSize=40;fontColor=#000000;fillColor=#ffffc0;strokeColor=#ff0000;" vertex="1" parent="1">
          <mxGeometry x="190" y="400" width="120" height="40" as="geometry" />
        </mxCell>
        <mxCell id="vqnMOsUC-vPy9NbRKkSd-36" value="DB" style="html=1;dropTarget=0;whiteSpace=wrap;" vertex="1" parent="1">
          <mxGeometry x="670" y="170" width="157" height="90" as="geometry" />
        </mxCell>
      </root>
    </mxGraphModel>
  </diagram>
</mxfile>
